<svg xmlns="http://www.w3.org/2000/svg" width="32" height="32" fill="none"><path fill="#029297" fill-rule="evenodd" d="M11.368 27.372c3.139-3.456 7.158-9.191 7.158-15.431 0-1.63-.774-3.64-2.244-5.269-1.45-1.605-3.223-2.461-4.914-2.461-1.69 0-3.463.856-4.913 2.461-1.47 1.628-2.244 3.64-2.244 5.269 0 6.24 4.019 11.975 7.157 15.431zm2.38 3.623c3.333-3.482 8.989-10.632 8.989-19.054C22.737 6.288 17.647 0 11.368 0 5.09 0 0 6.288 0 11.94c0 8.423 5.656 15.573 8.99 19.055 1.282 1.34 3.474 1.34 4.758 0z" clip-rule="evenodd"/><path fill="#01494B" fill-rule="evenodd" d="M27.79 11.94c0 6.24-4.02 11.976-7.159 15.432-3.138-3.456-7.158-9.191-7.158-15.431 0-1.63.775-3.64 2.245-5.269.093-.102.187-.202.282-.299-1.146-1.16-2.467-1.874-3.78-2.091-1.837 2.216-2.957 5.007-2.957 7.659 0 8.422 5.656 15.572 8.99 19.054 1.282 1.34 3.474 1.34 4.757 0C26.343 27.513 32 20.363 32 11.94 32 6.288 26.91 0 20.63 0 18.981 0 17.415.434 16 1.176c1.444.758 2.73 1.838 3.78 3.106.285-.048.57-.071.851-.071 1.69 0 3.464.856 4.914 2.461 1.47 1.628 2.244 3.64 2.244 5.269z" clip-rule="evenodd"/></svg>